<mxfile host="app.diagrams.net" agent="Mozilla/5.0 (Windows NT 10.0; Win64; x64) AppleWebKit/537.36 (KHTML, like Gecko) Chrome/129.0.0.0 Safari/537.36" version="24.8.0">
  <diagram name="Page-1" id="8Tn2jqm4uxfZvKQmKd5I">
    <mxGraphModel dx="1290" dy="618" grid="1" gridSize="10" guides="1" tooltips="1" connect="1" arrows="1" fold="1" page="1" pageScale="1" pageWidth="827" pageHeight="1169" math="0" shadow="0">
      <root>
        <mxCell id="0" />
        <mxCell id="1" parent="0" />
        <mxCell id="1aq5z8RRxSf0HFVu-Xhb-1" value="Продавец" style="shape=umlActor;verticalLabelPosition=bottom;verticalAlign=top;html=1;outlineConnect=0;" vertex="1" parent="1">
          <mxGeometry x="220" y="410" width="30" height="60" as="geometry" />
        </mxCell>
        <mxCell id="1aq5z8RRxSf0HFVu-Xhb-2" value="Покупатель" style="shape=umlActor;verticalLabelPosition=bottom;verticalAlign=top;html=1;outlineConnect=0;" vertex="1" parent="1">
          <mxGeometry x="670" y="410" width="30" height="60" as="geometry" />
        </mxCell>
        <mxCell id="1aq5z8RRxSf0HFVu-Xhb-3" value="" style="ellipse;whiteSpace=wrap;html=1;" vertex="1" parent="1">
          <mxGeometry x="400" y="410" width="110" height="60" as="geometry" />
        </mxCell>
        <mxCell id="1aq5z8RRxSf0HFVu-Xhb-4" value="Заказать товар со склада" style="ellipse;whiteSpace=wrap;html=1;" vertex="1" parent="1">
          <mxGeometry x="590" y="300" width="110" height="60" as="geometry" />
        </mxCell>
        <mxCell id="1aq5z8RRxSf0HFVu-Xhb-5" value="&lt;div&gt;Согласовать условия&lt;/div&gt;&lt;div&gt;оплаты&lt;/div&gt;" style="ellipse;whiteSpace=wrap;html=1;" vertex="1" parent="1">
          <mxGeometry x="400" y="240" width="110" height="60" as="geometry" />
        </mxCell>
        <mxCell id="1aq5z8RRxSf0HFVu-Xhb-6" value="&lt;div&gt;Обеспечить покупателя&lt;/div&gt;&lt;div&gt;информацией&lt;/div&gt;" style="ellipse;whiteSpace=wrap;html=1;" vertex="1" parent="1">
          <mxGeometry x="210" y="280" width="110" height="60" as="geometry" />
        </mxCell>
        <mxCell id="1aq5z8RRxSf0HFVu-Xhb-7" value="Оставить отзыв о товаре" style="ellipse;whiteSpace=wrap;html=1;" vertex="1" parent="1">
          <mxGeometry x="220" y="540" width="110" height="60" as="geometry" />
        </mxCell>
        <mxCell id="1aq5z8RRxSf0HFVu-Xhb-8" value="Отменить заказ" style="ellipse;whiteSpace=wrap;html=1;" vertex="1" parent="1">
          <mxGeometry x="400" y="584" width="110" height="60" as="geometry" />
        </mxCell>
        <mxCell id="1aq5z8RRxSf0HFVu-Xhb-9" value="Отслежить статуса доставки&amp;nbsp;" style="ellipse;whiteSpace=wrap;html=1;" vertex="1" parent="1">
          <mxGeometry x="580" y="540" width="110" height="60" as="geometry" />
        </mxCell>
        <mxCell id="1aq5z8RRxSf0HFVu-Xhb-10" value="" style="endArrow=classic;html=1;rounded=0;entryX=1;entryY=0.5;entryDx=0;entryDy=0;" edge="1" parent="1" source="1aq5z8RRxSf0HFVu-Xhb-2" target="1aq5z8RRxSf0HFVu-Xhb-3">
          <mxGeometry width="50" height="50" relative="1" as="geometry">
            <mxPoint x="650" y="440" as="sourcePoint" />
            <mxPoint x="500" y="450" as="targetPoint" />
          </mxGeometry>
        </mxCell>
        <mxCell id="1aq5z8RRxSf0HFVu-Xhb-11" value="" style="endArrow=classic;html=1;rounded=0;" edge="1" parent="1" source="1aq5z8RRxSf0HFVu-Xhb-1">
          <mxGeometry width="50" height="50" relative="1" as="geometry">
            <mxPoint x="450" y="500" as="sourcePoint" />
            <mxPoint x="400" y="440" as="targetPoint" />
          </mxGeometry>
        </mxCell>
        <mxCell id="1aq5z8RRxSf0HFVu-Xhb-12" value="Оформить&amp;nbsp;&lt;div&gt;заказ&amp;nbsp;&lt;/div&gt;&lt;div&gt;на покупку&lt;/div&gt;" style="text;html=1;align=center;verticalAlign=middle;resizable=0;points=[];autosize=1;strokeColor=none;fillColor=none;" vertex="1" parent="1">
          <mxGeometry x="410" y="410" width="90" height="60" as="geometry" />
        </mxCell>
        <mxCell id="1aq5z8RRxSf0HFVu-Xhb-13" value="&amp;lt;&amp;lt;include&amp;gt;&amp;gt;" style="html=1;verticalAlign=bottom;labelBackgroundColor=none;endArrow=open;endFill=0;dashed=1;rounded=0;entryX=0.024;entryY=0.656;entryDx=0;entryDy=0;entryPerimeter=0;exitX=1;exitY=0;exitDx=0;exitDy=0;" edge="1" parent="1" source="1aq5z8RRxSf0HFVu-Xhb-3" target="1aq5z8RRxSf0HFVu-Xhb-4">
          <mxGeometry x="-0.0256" y="-13" width="160" relative="1" as="geometry">
            <mxPoint x="410" y="460" as="sourcePoint" />
            <mxPoint x="570" y="390" as="targetPoint" />
            <mxPoint y="-1" as="offset" />
          </mxGeometry>
        </mxCell>
        <mxCell id="1aq5z8RRxSf0HFVu-Xhb-14" value="&amp;lt;&amp;lt;include&amp;gt;&amp;gt;" style="html=1;verticalAlign=bottom;labelBackgroundColor=none;endArrow=open;endFill=0;dashed=1;rounded=0;entryX=0.5;entryY=1;entryDx=0;entryDy=0;exitX=0.5;exitY=0;exitDx=0;exitDy=0;" edge="1" parent="1" source="1aq5z8RRxSf0HFVu-Xhb-3" target="1aq5z8RRxSf0HFVu-Xhb-5">
          <mxGeometry x="-0.4545" width="160" relative="1" as="geometry">
            <mxPoint x="504" y="429" as="sourcePoint" />
            <mxPoint x="603" y="349" as="targetPoint" />
            <mxPoint y="1" as="offset" />
          </mxGeometry>
        </mxCell>
        <mxCell id="1aq5z8RRxSf0HFVu-Xhb-15" value="&amp;lt;&amp;lt;include&amp;gt;&amp;gt;" style="html=1;verticalAlign=bottom;labelBackgroundColor=none;endArrow=open;endFill=0;dashed=1;rounded=0;entryX=1;entryY=1;entryDx=0;entryDy=0;" edge="1" parent="1" source="1aq5z8RRxSf0HFVu-Xhb-3" target="1aq5z8RRxSf0HFVu-Xhb-6">
          <mxGeometry x="-0.2116" y="9" width="160" relative="1" as="geometry">
            <mxPoint x="465" y="420" as="sourcePoint" />
            <mxPoint x="465" y="310" as="targetPoint" />
            <mxPoint as="offset" />
          </mxGeometry>
        </mxCell>
        <mxCell id="1aq5z8RRxSf0HFVu-Xhb-16" value="&amp;lt;&amp;lt;extend&amp;gt;&amp;gt;" style="html=1;verticalAlign=bottom;labelBackgroundColor=none;endArrow=open;endFill=0;dashed=1;rounded=0;exitX=1;exitY=0;exitDx=0;exitDy=0;entryX=0;entryY=1;entryDx=0;entryDy=0;" edge="1" parent="1" source="1aq5z8RRxSf0HFVu-Xhb-7" target="1aq5z8RRxSf0HFVu-Xhb-3">
          <mxGeometry x="-0.4113" y="-9" width="160" relative="1" as="geometry">
            <mxPoint x="410" y="460" as="sourcePoint" />
            <mxPoint x="570" y="460" as="targetPoint" />
            <mxPoint as="offset" />
          </mxGeometry>
        </mxCell>
        <mxCell id="1aq5z8RRxSf0HFVu-Xhb-17" value="&amp;lt;&amp;lt;extend&amp;gt;&amp;gt;" style="html=1;verticalAlign=bottom;labelBackgroundColor=none;endArrow=open;endFill=0;dashed=1;rounded=0;exitX=0.252;exitY=0.107;exitDx=0;exitDy=0;exitPerimeter=0;entryX=1;entryY=1;entryDx=0;entryDy=0;" edge="1" parent="1" source="1aq5z8RRxSf0HFVu-Xhb-9" target="1aq5z8RRxSf0HFVu-Xhb-3">
          <mxGeometry x="0.0415" y="-3" width="160" relative="1" as="geometry">
            <mxPoint x="410" y="460" as="sourcePoint" />
            <mxPoint x="570" y="490" as="targetPoint" />
            <mxPoint as="offset" />
          </mxGeometry>
        </mxCell>
        <mxCell id="1aq5z8RRxSf0HFVu-Xhb-18" value="&amp;lt;&amp;lt;extend&amp;gt;&amp;gt;" style="html=1;verticalAlign=bottom;labelBackgroundColor=none;endArrow=open;endFill=0;dashed=1;rounded=0;" edge="1" parent="1" target="1aq5z8RRxSf0HFVu-Xhb-12">
          <mxGeometry x="-0.652" y="-2" width="160" relative="1" as="geometry">
            <mxPoint x="455" y="590" as="sourcePoint" />
            <mxPoint x="454" y="470" as="targetPoint" />
            <mxPoint as="offset" />
          </mxGeometry>
        </mxCell>
      </root>
    </mxGraphModel>
  </diagram>
</mxfile>
